<svg id="visual" viewBox="0 0 1920 250" width="1920" height="250" xmlns="http://www.w3.org/2000/svg" xmlns:xlink="http://www.w3.org/1999/xlink" version="1.1"><rect x="0" y="0" width="1920" height="250" fill="#624763"></rect><path d="M0 149L29.2 155C58.3 161 116.7 173 174.8 177C233 181 291 177 349.2 176C407.3 175 465.7 177 523.8 179.2C582 181.3 640 183.7 698.2 185.5C756.3 187.3 814.7 188.7 872.8 185.7C931 182.7 989 175.3 1047.2 168.7C1105.3 162 1163.7 156 1221.8 157.7C1280 159.3 1338 168.7 1396.2 170.3C1454.3 172 1512.7 166 1570.8 162.5C1629 159 1687 158 1745.2 160.3C1803.3 162.7 1861.7 168.3 1890.8 171.2L1920 174L1920 251L1890.8 251C1861.7 251 1803.3 251 1745.2 251C1687 251 1629 251 1570.8 251C1512.7 251 1454.3 251 1396.2 251C1338 251 1280 251 1221.8 251C1163.7 251 1105.3 251 1047.2 251C989 251 931 251 872.8 251C814.7 251 756.3 251 698.2 251C640 251 582 251 523.8 251C465.7 251 407.3 251 349.2 251C291 251 233 251 174.8 251C116.7 251 58.3 251 29.2 251L0 251Z" fill="#bba8bc"></path><path d="M0 187L29.2 187.7C58.3 188.3 116.7 189.7 174.8 189.7C233 189.7 291 188.3 349.2 186.3C407.3 184.3 465.7 181.7 523.8 182.5C582 183.3 640 187.7 698.2 186.5C756.3 185.3 814.7 178.7 872.8 178.7C931 178.7 989 185.3 1047.2 184.7C1105.3 184 1163.7 176 1221.8 173.2C1280 170.3 1338 172.7 1396.2 175.2C1454.3 177.7 1512.7 180.3 1570.8 180C1629 179.7 1687 176.3 1745.2 175.2C1803.3 174 1861.7 175 1890.8 175.5L1920 176L1920 251L1890.8 251C1861.7 251 1803.3 251 1745.2 251C1687 251 1629 251 1570.8 251C1512.7 251 1454.3 251 1396.2 251C1338 251 1280 251 1221.8 251C1163.7 251 1105.3 251 1047.2 251C989 251 931 251 872.8 251C814.7 251 756.3 251 698.2 251C640 251 582 251 523.8 251C465.7 251 407.3 251 349.2 251C291 251 233 251 174.8 251C116.7 251 58.3 251 29.2 251L0 251Z" fill="#987f99"></path><path d="M0 191L29.2 190.8C58.3 190.7 116.7 190.3 174.8 189.8C233 189.3 291 188.7 349.2 188.5C407.3 188.3 465.7 188.7 523.8 193C582 197.3 640 205.7 698.2 205.7C756.3 205.7 814.7 197.3 872.8 193.5C931 189.7 989 190.3 1047.2 191.3C1105.3 192.3 1163.7 193.7 1221.8 197.3C1280 201 1338 207 1396.2 210.2C1454.3 213.3 1512.7 213.7 1570.8 209.5C1629 205.3 1687 196.7 1745.2 193.5C1803.3 190.3 1861.7 192.7 1890.8 193.8L1920 195L1920 251L1890.8 251C1861.7 251 1803.3 251 1745.2 251C1687 251 1629 251 1570.8 251C1512.7 251 1454.3 251 1396.2 251C1338 251 1280 251 1221.8 251C1163.7 251 1105.3 251 1047.2 251C989 251 931 251 872.8 251C814.7 251 756.3 251 698.2 251C640 251 582 251 523.8 251C465.7 251 407.3 251 349.2 251C291 251 233 251 174.8 251C116.7 251 58.3 251 29.2 251L0 251Z" fill="#775777"></path><path d="M0 213L29.2 214.5C58.3 216 116.7 219 174.8 221.3C233 223.7 291 225.3 349.2 225.8C407.3 226.3 465.7 225.7 523.8 225C582 224.3 640 223.7 698.2 223.8C756.3 224 814.7 225 872.8 221.5C931 218 989 210 1047.2 209.3C1105.3 208.7 1163.7 215.3 1221.8 216.3C1280 217.3 1338 212.7 1396.2 211.8C1454.3 211 1512.7 214 1570.8 215.3C1629 216.7 1687 216.3 1745.2 217.5C1803.3 218.7 1861.7 221.3 1890.8 222.7L1920 224L1920 251L1890.8 251C1861.7 251 1803.3 251 1745.2 251C1687 251 1629 251 1570.8 251C1512.7 251 1454.3 251 1396.2 251C1338 251 1280 251 1221.8 251C1163.7 251 1105.3 251 1047.2 251C989 251 931 251 872.8 251C814.7 251 756.3 251 698.2 251C640 251 582 251 523.8 251C465.7 251 407.3 251 349.2 251C291 251 233 251 174.8 251C116.7 251 58.3 251 29.2 251L0 251Z" fill="#563157"></path><path d="M0 238L29.2 236.8C58.3 235.7 116.7 233.3 174.8 233C233 232.7 291 234.3 349.2 233.3C407.3 232.3 465.7 228.7 523.8 226.2C582 223.7 640 222.3 698.2 222.5C756.3 222.7 814.7 224.3 872.8 226.7C931 229 989 232 1047.2 232.7C1105.3 233.3 1163.7 231.7 1221.8 232.2C1280 232.7 1338 235.3 1396.2 234.8C1454.3 234.3 1512.7 230.7 1570.8 229.3C1629 228 1687 229 1745.2 229.2C1803.3 229.3 1861.7 228.7 1890.8 228.3L1920 228L1920 251L1890.8 251C1861.7 251 1803.3 251 1745.2 251C1687 251 1629 251 1570.8 251C1512.7 251 1454.3 251 1396.2 251C1338 251 1280 251 1221.8 251C1163.7 251 1105.3 251 1047.2 251C989 251 931 251 872.8 251C814.7 251 756.3 251 698.2 251C640 251 582 251 523.8 251C465.7 251 407.3 251 349.2 251C291 251 233 251 174.8 251C116.7 251 58.3 251 29.2 251L0 251Z" fill="#370c38"></path></svg>