<svg id="visual" viewBox="0 0 1026 250" width="1026" height="250" xmlns="http://www.w3.org/2000/svg" xmlns:xlink="http://www.w3.org/1999/xlink" version="1.1"><rect x="0" y="0" width="1026" height="250" fill="#624763"></rect><path d="M0 55L45 55L45 51L89 51L89 88L134 88L134 58L178 58L178 95L223 95L223 96L268 96L268 67L312 67L312 88L357 88L357 65L401 65L401 68L446 68L446 72L491 72L491 90L535 90L535 95L580 95L580 44L625 44L625 67L669 67L669 68L714 68L714 46L758 46L758 90L803 90L803 79L848 79L848 57L892 57L892 57L937 57L937 74L981 74L981 62L1026 62L1026 70L1026 251L1026 251L981 251L981 251L937 251L937 251L892 251L892 251L848 251L848 251L803 251L803 251L758 251L758 251L714 251L714 251L669 251L669 251L625 251L625 251L580 251L580 251L535 251L535 251L491 251L491 251L446 251L446 251L401 251L401 251L357 251L357 251L312 251L312 251L268 251L268 251L223 251L223 251L178 251L178 251L134 251L134 251L89 251L89 251L45 251L45 251L0 251Z" fill="#cebdcf"></path><path d="M0 131L45 131L45 101L89 101L89 123L134 123L134 123L178 123L178 111L223 111L223 110L268 110L268 94L312 94L312 122L357 122L357 121L401 121L401 108L446 108L446 95L491 95L491 137L535 137L535 102L580 102L580 130L625 130L625 101L669 101L669 119L714 119L714 120L758 120L758 132L803 132L803 109L848 109L848 126L892 126L892 130L937 130L937 109L981 109L981 105L1026 105L1026 125L1026 251L1026 251L981 251L981 251L937 251L937 251L892 251L892 251L848 251L848 251L803 251L803 251L758 251L758 251L714 251L714 251L669 251L669 251L625 251L625 251L580 251L580 251L535 251L535 251L491 251L491 251L446 251L446 251L401 251L401 251L357 251L357 251L312 251L312 251L268 251L268 251L223 251L223 251L178 251L178 251L134 251L134 251L89 251L89 251L45 251L45 251L0 251Z" fill="#968397"></path><path d="M0 150L45 150L45 161L89 161L89 137L134 137L134 137L178 137L178 174L223 174L223 148L268 148L268 171L312 171L312 138L357 138L357 177L401 177L401 162L446 162L446 176L491 176L491 159L535 159L535 185L580 185L580 184L625 184L625 176L669 176L669 157L714 157L714 183L758 183L758 166L803 166L803 156L848 156L848 154L892 154L892 169L937 169L937 151L981 151L981 175L1026 175L1026 185L1026 251L1026 251L981 251L981 251L937 251L937 251L892 251L892 251L848 251L848 251L803 251L803 251L758 251L758 251L714 251L714 251L669 251L669 251L625 251L625 251L580 251L580 251L535 251L535 251L491 251L491 251L446 251L446 251L401 251L401 251L357 251L357 251L312 251L312 251L268 251L268 251L223 251L223 251L178 251L178 251L134 251L134 251L89 251L89 251L45 251L45 251L0 251Z" fill="#614e62"></path><path d="M0 216L45 216L45 178L89 178L89 200L134 200L134 181L178 181L178 186L223 186L223 198L268 198L268 185L312 185L312 191L357 191L357 183L401 183L401 209L446 209L446 209L491 209L491 203L535 203L535 180L580 180L580 223L625 223L625 193L669 193L669 224L714 224L714 184L758 184L758 215L803 215L803 227L848 227L848 178L892 178L892 185L937 185L937 201L981 201L981 213L1026 213L1026 189L1026 251L1026 251L981 251L981 251L937 251L937 251L892 251L892 251L848 251L848 251L803 251L803 251L758 251L758 251L714 251L714 251L669 251L669 251L625 251L625 251L580 251L580 251L535 251L535 251L491 251L491 251L446 251L446 251L401 251L401 251L357 251L357 251L312 251L312 251L268 251L268 251L223 251L223 251L178 251L178 251L134 251L134 251L89 251L89 251L45 251L45 251L0 251Z" fill="#311e32"></path></svg>